<?xml version="1.0" encoding="UTF-8"?>
<svg width="800" height="450" viewBox="0 0 800 450" xmlns="http://www.w3.org/2000/svg">
  <!-- Background -->
  <rect width="800" height="450" fill="#0A0A0A"/>
  
  <!-- CAD Screen -->
  <g transform="translate(50,50)">
    <rect width="300" height="250" fill="none" stroke="#00FF00" stroke-width="2"/>
    <!-- CAD Interface Elements -->
    <line x1="0" y1="30" x2="300" y2="30" stroke="#00FF00" stroke-width="1"/>
    <rect x="5" y="5" width="20" height="20" fill="#00FF00" fill-opacity="0.5"/>
    <!-- 3D Model Wireframe -->
    <g transform="translate(50,50)" fill="none" stroke="#00FF00" stroke-width="1">
      <path d="M0,150 L50,100 L150,100 L200,150 L150,200 L50,200 Z"/>
      <path d="M50,100 L50,50 L150,50 L150,100"/>
      <path d="M150,100 L200,50 L200,100 L200,150"/>
    </g>
  </g>
  
  <!-- 3D Printer with Complex Model -->
  <g transform="translate(400,50)">
    <rect width="350" height="350" fill="none" stroke="#00FF00" stroke-width="2"/>
    <!-- Complex 3D Print -->
    <g transform="translate(75,75)" fill="#00FF00" fill-opacity="0.2">
      <path d="M0,150 L50,100 L150,100 L200,150 L150,200 L50,200 Z"/>
      <path d="M50,100 L50,50 L150,50 L150,100"/>
      <!-- Print layers -->
      <g stroke="#00FF00" stroke-width="1">
        <line x1="0" y1="160" x2="200" y2="160"/>
        <line x1="50" y1="120" x2="150" y2="120"/>
        <line x1="50" y1="80" x2="150" y2="80"/>
      </g>
    </g>
  </g>
  
  <!-- Text -->
  <text x="400" y="425" fill="#00FF00" font-family="Arial" font-size="24" text-anchor="middle">
    CAD Design & Advanced Printing
  </text>
</svg>
