<?xml version="1.0" encoding="UTF-8"?>
<svg width="800" height="450" viewBox="0 0 800 450" xmlns="http://www.w3.org/2000/svg">
  <!-- Background -->
  <rect width="800" height="450" fill="#0A0A0A"/>
  
  <!-- Project Timeline -->
  <g transform="translate(50,50)">
    <line x1="0" y1="0" x2="700" y2="0" stroke="#00FF00" stroke-width="2"/>
    <!-- Timeline Points -->
    <g fill="#00FF00">
      <circle cx="0" cy="0" r="5"/>
      <circle cx="175" cy="0" r="5"/>
      <circle cx="350" cy="0" r="5"/>
      <circle cx="525" cy="0" r="5"/>
      <circle cx="700" cy="0" r="5"/>
    </g>
    <!-- Labels -->
    <g fill="#00FF00" font-family="Arial" font-size="14">
      <text x="0" y="25" text-anchor="middle">Concept</text>
      <text x="175" y="25" text-anchor="middle">Design</text>
      <text x="350" y="25" text-anchor="middle">Prototype</text>
      <text x="525" y="25" text-anchor="middle">Testing</text>
      <text x="700" y="25" text-anchor="middle">Production</text>
    </g>
  </g>
  
  <!-- Project Elements -->
  <g transform="translate(50,100)">
    <!-- Concept Sketches -->
    <g transform="translate(0,0)" stroke="#00FF00" fill="none">
      <rect width="120" height="80" stroke-width="1"/>
      <path d="M20,20 L100,60 M20,60 L100,20" stroke-width="0.5"/>
    </g>
    
    <!-- CAD Design -->
    <g transform="translate(175,0)">
      <rect width="120" height="80" fill="none" stroke="#00FF00" stroke-width="1"/>
      <path d="M20,20 L100,20 L100,60 L20,60 Z" fill="#00FF00" fill-opacity="0.2"/>
    </g>
    
    <!-- 3D Printer -->
    <g transform="translate(350,0)">
      <rect width="120" height="80" fill="none" stroke="#00FF00" stroke-width="1"/>
      <rect x="30" y="10" width="60" height="60" fill="#00FF00" fill-opacity="0.2"/>
    </g>
    
    <!-- Quality Control -->
    <g transform="translate(525,0)">
      <rect width="120" height="80" fill="none" stroke="#00FF00" stroke-width="1"/>
      <path d="M30,40 L50,60 L90,20" stroke="#00FF00" stroke-width="2"/>
    </g>
    
    <!-- Final Product -->
    <g transform="translate(700,0)">
      <rect width="120" height="80" fill="none" stroke="#00FF00" stroke-width="1"/>
      <circle cx="60" cy="40" r="25" fill="#00FF00" fill-opacity="0.3"/>
    </g>
  </g>
  
  <!-- Text -->
  <text x="400" y="425" fill="#00FF00" font-family="Arial" font-size="24" text-anchor="middle">
    Complete Project Management
  </text>
</svg>
